<?xml version="1.0" encoding="UTF-8" standalone="no"?>
<!-- Created with Inkscape (http://www.inkscape.org/) -->

<svg
   width="166.17442mm"
   height="60.20356mm"
   viewBox="0 0 166.17442 60.20356"
   version="1.1"
   id="svg5"
   inkscape:version="1.2.2 (b0a8486541, 2022-12-01)"
   sodipodi:docname="transfers.svg"
   xmlns:inkscape="http://www.inkscape.org/namespaces/inkscape"
   xmlns:sodipodi="http://sodipodi.sourceforge.net/DTD/sodipodi-0.dtd"
   xmlns="http://www.w3.org/2000/svg"
   xmlns:svg="http://www.w3.org/2000/svg">
  <sodipodi:namedview
     id="namedview7"
     pagecolor="#ffffff"
     bordercolor="#666666"
     borderopacity="1.0"
     inkscape:showpageshadow="2"
     inkscape:pageopacity="0.0"
     inkscape:pagecheckerboard="0"
     inkscape:deskcolor="#d1d1d1"
     inkscape:document-units="mm"
     showgrid="true"
     inkscape:zoom="1.5625561"
     inkscape:cx="250.551"
     inkscape:cy="133.7552"
     inkscape:window-width="1920"
     inkscape:window-height="1055"
     inkscape:window-x="0"
     inkscape:window-y="25"
     inkscape:window-maximized="1"
     inkscape:current-layer="layer1"
     showguides="true">
    <inkscape:grid
       type="xygrid"
       id="grid9"
       spacingx="0.52916667"
       spacingy="0.52916667"
       originx="7.2993049"
       originy="-4.7475252" />
    <sodipodi:guide
       position="25.820138,54.367755"
       orientation="0,-1"
       id="guide142"
       inkscape:locked="false" />
    <sodipodi:guide
       position="23.174305,27.909425"
       orientation="0,-1"
       id="guide348"
       inkscape:locked="false" />
    <sodipodi:guide
       position="12.590971,12.034424"
       orientation="0,-1"
       id="guide2898"
       inkscape:locked="false" />
    <sodipodi:guide
       position="28.465972,35.846915"
       orientation="1,0"
       id="guide4102"
       inkscape:locked="false" />
    <sodipodi:guide
       position="76.090971,49.076095"
       orientation="1,0"
       id="guide4104"
       inkscape:locked="false" />
    <sodipodi:guide
       position="126.3618,51.721915"
       orientation="1,0"
       id="guide4106"
       inkscape:locked="false" />
  </sodipodi:namedview>
  <defs
     id="defs2">
    <marker
       style="overflow:visible"
       id="marker2703"
       refX="0"
       refY="0"
       orient="auto-start-reverse"
       inkscape:stockid="Arrow1L"
       markerWidth="8.75"
       markerHeight="5"
       viewBox="0 0 8.75 5"
       inkscape:isstock="true"
       inkscape:collect="always"
       preserveAspectRatio="xMidYMid">
      <path
         style="fill:context-stroke;fill-rule:evenodd;stroke:none"
         d="M 0,0 5,-5 -12.5,0 5,5 Z"
         id="path2701"
         transform="scale(-0.5)" />
    </marker>
    <marker
       style="overflow:visible"
       id="marker2337"
       refX="0"
       refY="0"
       orient="auto"
       inkscape:stockid="Dot"
       markerWidth="3.6670001"
       markerHeight="3.6670001"
       viewBox="0 0 5.6666667 5.6666667"
       inkscape:isstock="true"
       inkscape:collect="always"
       preserveAspectRatio="xMidYMid">
      <path
         transform="scale(0.5)"
         style="fill:context-stroke;fill-rule:evenodd;stroke:context-stroke;stroke-width:1pt"
         d="M 5,0 C 5,2.76 2.76,5 0,5 -2.76,5 -5,2.76 -5,0 c 0,-2.76 2.3,-5 5,-5 2.76,0 5,2.24 5,5 z"
         id="path2335"
         sodipodi:nodetypes="sssss" />
    </marker>
    <marker
       style="overflow:visible"
       id="Dot"
       refX="0"
       refY="0"
       orient="auto"
       inkscape:stockid="Dot"
       markerWidth="3.6670001"
       markerHeight="3.6670001"
       viewBox="0 0 5.6666667 5.6666667"
       inkscape:isstock="true"
       inkscape:collect="always"
       preserveAspectRatio="xMidYMid">
      <path
         transform="scale(0.5)"
         style="fill:context-stroke;fill-rule:evenodd;stroke:context-stroke;stroke-width:1pt"
         d="M 5,0 C 5,2.76 2.76,5 0,5 -2.76,5 -5,2.76 -5,0 c 0,-2.76 2.3,-5 5,-5 2.76,0 5,2.24 5,5 z"
         id="Dot1"
         sodipodi:nodetypes="sssss" />
    </marker>
    <marker
       style="overflow:visible"
       id="Arrow1L"
       refX="0"
       refY="0"
       orient="auto-start-reverse"
       inkscape:stockid="Arrow1L"
       markerWidth="8.75"
       markerHeight="5"
       viewBox="0 0 8.75 5"
       inkscape:isstock="true"
       inkscape:collect="always"
       preserveAspectRatio="xMidYMid">
      <path
         style="fill:context-stroke;fill-rule:evenodd;stroke:none"
         d="M 0,0 5,-5 -12.5,0 5,5 Z"
         id="arrow1L"
         transform="scale(-0.5)" />
    </marker>
    <marker
       style="overflow:visible"
       id="marker2337-2"
       refX="0"
       refY="0"
       orient="auto"
       inkscape:stockid="Dot"
       markerWidth="3.6670001"
       markerHeight="3.6670001"
       viewBox="0 0 5.6666667 5.6666667"
       inkscape:isstock="true"
       inkscape:collect="always"
       preserveAspectRatio="xMidYMid">
      <path
         transform="scale(0.5)"
         style="fill:context-stroke;fill-rule:evenodd;stroke:context-stroke;stroke-width:1pt"
         d="M 5,0 C 5,2.76 2.76,5 0,5 -2.76,5 -5,2.76 -5,0 c 0,-2.76 2.3,-5 5,-5 2.76,0 5,2.24 5,5 z"
         id="path2335-5"
         sodipodi:nodetypes="sssss" />
    </marker>
    <marker
       style="overflow:visible"
       id="Dot-4"
       refX="0"
       refY="0"
       orient="auto"
       inkscape:stockid="Dot"
       markerWidth="3.6670001"
       markerHeight="3.6670001"
       viewBox="0 0 5.6666667 5.6666667"
       inkscape:isstock="true"
       inkscape:collect="always"
       preserveAspectRatio="xMidYMid">
      <path
         transform="scale(0.5)"
         style="fill:context-stroke;fill-rule:evenodd;stroke:context-stroke;stroke-width:1pt"
         d="M 5,0 C 5,2.76 2.76,5 0,5 -2.76,5 -5,2.76 -5,0 c 0,-2.76 2.3,-5 5,-5 2.76,0 5,2.24 5,5 z"
         id="Dot1-7"
         sodipodi:nodetypes="sssss" />
    </marker>
    <marker
       style="overflow:visible"
       id="Arrow1L-4"
       refX="0"
       refY="0"
       orient="auto-start-reverse"
       inkscape:stockid="Arrow1L"
       markerWidth="8.75"
       markerHeight="5"
       viewBox="0 0 8.75 5"
       inkscape:isstock="true"
       inkscape:collect="always"
       preserveAspectRatio="xMidYMid">
      <path
         style="fill:context-stroke;fill-rule:evenodd;stroke:none"
         d="M 0,0 5,-5 -12.5,0 5,5 Z"
         id="arrow1L-4"
         transform="scale(-0.5)" />
    </marker>
    <marker
       style="overflow:visible"
       id="marker2337-4"
       refX="0"
       refY="0"
       orient="auto"
       inkscape:stockid="Dot"
       markerWidth="3.6670001"
       markerHeight="3.6670001"
       viewBox="0 0 5.6666667 5.6666667"
       inkscape:isstock="true"
       inkscape:collect="always"
       preserveAspectRatio="xMidYMid">
      <path
         transform="scale(0.5)"
         style="fill:context-stroke;fill-rule:evenodd;stroke:context-stroke;stroke-width:1pt"
         d="M 5,0 C 5,2.76 2.76,5 0,5 -2.76,5 -5,2.76 -5,0 c 0,-2.76 2.3,-5 5,-5 2.76,0 5,2.24 5,5 z"
         id="path2335-9"
         sodipodi:nodetypes="sssss" />
    </marker>
    <marker
       style="overflow:visible"
       id="Dot-2"
       refX="0"
       refY="0"
       orient="auto"
       inkscape:stockid="Dot"
       markerWidth="3.6670001"
       markerHeight="3.6670001"
       viewBox="0 0 5.6666667 5.6666667"
       inkscape:isstock="true"
       inkscape:collect="always"
       preserveAspectRatio="xMidYMid">
      <path
         transform="scale(0.5)"
         style="fill:context-stroke;fill-rule:evenodd;stroke:context-stroke;stroke-width:1pt"
         d="M 5,0 C 5,2.76 2.76,5 0,5 -2.76,5 -5,2.76 -5,0 c 0,-2.76 2.3,-5 5,-5 2.76,0 5,2.24 5,5 z"
         id="Dot1-0"
         sodipodi:nodetypes="sssss" />
    </marker>
    <clipPath
       id="clipPath3655">
      <path
         d="m 8,5 h 5 V 9.65625 H 8 Z m 0,0"
         id="path6770" />
    </clipPath>
    <clipPath
       id="clipPath5403">
      <path
         d="m 8,5 h 4 V 8.300781 H 8 Z m 0,0"
         id="path2223" />
    </clipPath>
    <clipPath
       id="clipPath9252">
      <path
         d="m 8,5 h 3.996094 V 8.300781 H 8 Z m 0,0"
         id="path5355" />
    </clipPath>
    <clipPath
       id="clipPath800">
      <path
         d="m 7,5 h 5 V 9.65625 H 7 Z m 0,0"
         id="path8622" />
    </clipPath>
    <clipPath
       id="clipPath7116">
      <path
         d="m 9,6 h 4.878906 v 5.511719 H 9 Z m 0,0"
         id="path4136" />
    </clipPath>
    <clipPath
       id="clipPath1924">
      <path
         d="m 9,6 h 4 V 9.964844 H 9 Z m 0,0"
         id="path1071" />
    </clipPath>
    <clipPath
       id="clipPath6870">
      <path
         d="m 10,6 h 4 v 3.964844 h -4 z m 0,0"
         id="path5989" />
    </clipPath>
    <clipPath
       id="clipPath6718">
      <path
         d="m 9,6 h 5 v 5.511719 H 9 Z m 0,0"
         id="path902" />
    </clipPath>
  </defs>
  <g
     inkscape:label="Layer 1"
     inkscape:groupmode="layer"
     id="layer1"
     transform="translate(7.2993, -4.74753)">
    <path
       style="fill:none;stroke:#af0000;stroke-width:0.465;stroke-linecap:butt;stroke-linejoin:miter;stroke-dasharray:none;stroke-opacity:1;marker-start:url(#marker2337);marker-end:url(#Dot)"
       d="m 34.395834,10.583332 v 26.458335 0"
       id="path140"
       sodipodi:nodetypes="ccc" />
    <path
       style="fill:none;stroke:#006400;stroke-width:0.465;stroke-linecap:butt;stroke-linejoin:miter;stroke-dasharray:none;stroke-opacity:1;marker-start:url(#marker2337);marker-end:url(#marker2337)"
       d="m 50.403126,26.458333 v 26.458335 0"
       id="path140-3"
       sodipodi:nodetypes="ccc" />
    <path
       style="opacity:0.5;fill:none;stroke:#000000;stroke-width:0.465;stroke-linecap:butt;stroke-linejoin:miter;stroke-miterlimit:4;stroke-dasharray:none;stroke-opacity:1;marker-end:url(#Arrow1L)"
       d="m 37.041668,31.75 h 8.995833"
       id="path457"
       sodipodi:nodetypes="cc" />
    <path
       style="fill:none;stroke:#000000;stroke-width:0.465;stroke-linecap:butt;stroke-linejoin:miter;stroke-dasharray:none;stroke-opacity:1;marker-end:url(#marker2703)"
       d="M 7.9374999,10.583331 V 51.329166"
       id="path2699"
       sodipodi:nodetypes="cc" />
    <text
       xml:space="preserve"
       style="font-style:normal;font-variant:normal;font-weight:normal;font-stretch:normal;font-size:4.23333px;line-height:1.25;font-family:sans-serif;-inkscape-font-specification:'sans-serif, Normal';font-variant-ligatures:normal;font-variant-caps:normal;font-variant-numeric:normal;font-variant-east-asian:normal;fill:#000000;fill-opacity:1;stroke:none;stroke-width:0.264583"
       x="-7.2869024"
       y="31.67507"
       id="text2846"><tspan
         sodipodi:role="line"
         id="tspan2844"
         style="font-style:normal;font-variant:normal;font-weight:normal;font-stretch:normal;font-size:4.23333px;font-family:sans-serif;-inkscape-font-specification:'sans-serif, Normal';font-variant-ligatures:normal;font-variant-caps:normal;font-variant-numeric:normal;font-variant-east-asian:normal;stroke-width:0.264583"
         x="-7.2869024"
         y="31.67507">Time</tspan></text>
    <text
       xml:space="preserve"
       style="font-style:normal;font-variant:normal;font-weight:normal;font-stretch:normal;font-size:4.23333px;line-height:1.25;font-family:sans-serif;-inkscape-font-specification:'sans-serif, Normal';font-variant-ligatures:normal;font-variant-caps:normal;font-variant-numeric:normal;font-variant-east-asian:normal;fill:#000000;fill-opacity:1;stroke:none;stroke-width:0.264583"
       x="35.567856"
       y="64.070503"
       id="text2846-4"><tspan
         sodipodi:role="line"
         id="tspan2844-5"
         style="font-style:normal;font-variant:normal;font-weight:normal;font-stretch:normal;font-size:4.23333px;font-family:sans-serif;-inkscape-font-specification:'sans-serif, Normal';font-variant-ligatures:normal;font-variant-caps:normal;font-variant-numeric:normal;font-variant-east-asian:normal;stroke-width:0.264583"
         x="35.567856"
         y="64.070503">Direct</tspan></text>
    <text
       xml:space="preserve"
       style="font-style:normal;font-weight:normal;font-size:10.5833px;line-height:1.25;font-family:sans-serif;fill:#af0000;fill-opacity:1;stroke:none;stroke-width:0.264583;stroke-opacity:1"
       x="27.898031"
       y="7.8625693"
       id="text2902"><tspan
         sodipodi:role="line"
         id="tspan2900"
         style="font-style:normal;font-variant:normal;font-weight:normal;font-stretch:normal;font-size:4.23333px;font-family:'DejaVu Serif';-inkscape-font-specification:'DejaVu Serif, Normal';font-variant-ligatures:normal;font-variant-caps:normal;font-variant-numeric:normal;font-variant-east-asian:normal;fill:#af0000;fill-opacity:1;stroke:none;stroke-width:0.264583;stroke-opacity:1"
         x="27.898031"
         y="7.8625693">Donor</tspan></text>
    <text
       xml:space="preserve"
       style="font-style:normal;font-weight:normal;font-size:10.5833px;line-height:1.25;font-family:sans-serif;fill:#006400;fill-opacity:1;stroke:none;stroke-width:0.264583;stroke-opacity:1"
       x="40.068867"
       y="23.73757"
       id="text2902-5"><tspan
         sodipodi:role="line"
         id="tspan2900-5"
         style="font-style:normal;font-variant:normal;font-weight:normal;font-stretch:normal;font-size:4.23333px;font-family:'DejaVu Serif';-inkscape-font-specification:'DejaVu Serif, Normal';font-variant-ligatures:normal;font-variant-caps:normal;font-variant-numeric:normal;font-variant-east-asian:normal;fill:#006400;fill-opacity:1;stroke:none;stroke-width:0.264583;stroke-opacity:1"
         x="40.068867"
         y="23.73757">Recipient</tspan></text>
    <path
       style="fill:none;stroke:#af0000;stroke-width:0.465;stroke-linecap:butt;stroke-linejoin:miter;stroke-dasharray:none;stroke-opacity:1;marker-start:url(#marker2337-4);marker-end:url(#Dot-2)"
       d="m 132.29164,37.041667 v 15.875003 0"
       id="path140-9"
       sodipodi:nodetypes="ccc" />
    <path
       style="fill:none;stroke:#006400;stroke-width:0.465;stroke-linecap:butt;stroke-linejoin:miter;stroke-dasharray:none;stroke-opacity:1;marker-start:url(#marker2337-4);marker-end:url(#marker2337-4)"
       d="m 148.29894,10.583334 v 15.875002 0"
       id="path140-3-2"
       sodipodi:nodetypes="ccc" />
    <text
       xml:space="preserve"
       style="font-style:normal;font-weight:normal;font-size:10.5833px;line-height:1.25;font-family:sans-serif;fill:#af0000;fill-opacity:1;stroke:none;stroke-width:0.264583;stroke-opacity:1"
       x="125.79391"
       y="34.320904"
       id="text2902-6"><tspan
         sodipodi:role="line"
         id="tspan2900-49"
         style="font-style:normal;font-variant:normal;font-weight:normal;font-stretch:normal;font-size:4.23333px;font-family:'DejaVu Serif';-inkscape-font-specification:'DejaVu Serif, Normal';font-variant-ligatures:normal;font-variant-caps:normal;font-variant-numeric:normal;font-variant-east-asian:normal;fill:#af0000;fill-opacity:1;stroke:none;stroke-width:0.264583;stroke-opacity:1"
         x="125.79391"
         y="34.320904">Donor</tspan></text>
    <text
       xml:space="preserve"
       style="font-style:normal;font-weight:normal;font-size:10.5833px;line-height:1.25;font-family:sans-serif;fill:#006400;fill-opacity:1;stroke:none;stroke-width:0.264583;stroke-opacity:1"
       x="137.9648"
       y="7.8625779"
       id="text2902-5-5"><tspan
         sodipodi:role="line"
         id="tspan2900-5-0"
         style="font-style:normal;font-variant:normal;font-weight:normal;font-stretch:normal;font-size:4.23333px;font-family:'DejaVu Serif';-inkscape-font-specification:'DejaVu Serif, Normal';font-variant-ligatures:normal;font-variant-caps:normal;font-variant-numeric:normal;font-variant-east-asian:normal;fill:#006400;fill-opacity:1;stroke:none;stroke-width:0.264583;stroke-opacity:1"
         x="137.9648"
         y="7.8625779">Recipient</tspan></text>
    <path
       style="fill:none;stroke:#af0000;stroke-width:0.465;stroke-linecap:butt;stroke-linejoin:miter;stroke-dasharray:none;stroke-opacity:1;marker-start:url(#marker2337-2);marker-end:url(#Dot-4)"
       d="m 82.020834,10.583331 v 15.875002 0"
       id="path140-30"
       sodipodi:nodetypes="ccc" />
    <path
       style="fill:none;stroke:#006400;stroke-width:0.465;stroke-linecap:butt;stroke-linejoin:miter;stroke-dasharray:none;stroke-opacity:1;marker-start:url(#marker2337-2);marker-end:url(#marker2337-2)"
       d="m 98.028122,37.041665 v 15.875002 0"
       id="path140-3-7"
       sodipodi:nodetypes="ccc" />
    <path
       style="opacity:0.5;fill:none;stroke:#000000;stroke-width:0.465;stroke-linecap:butt;stroke-linejoin:miter;stroke-miterlimit:4;stroke-dasharray:none;stroke-opacity:1;marker-end:url(#Arrow1L-4)"
       d="m 84.666666,18.520833 c 10.583333,0 0,26.458334 7.9375,26.458334"
       id="path457-8"
       sodipodi:nodetypes="cc" />
    <text
       xml:space="preserve"
       style="font-style:normal;font-variant:normal;font-weight:normal;font-stretch:normal;font-size:4.23333px;line-height:1.25;font-family:sans-serif;-inkscape-font-specification:'sans-serif, Normal';font-variant-ligatures:normal;font-variant-caps:normal;font-variant-numeric:normal;font-variant-east-asian:normal;fill:#000000;fill-opacity:1;stroke:none;stroke-width:0.264583"
       x="82.134514"
       y="64.070518"
       id="text2846-4-6"><tspan
         sodipodi:role="line"
         id="tspan2844-5-8"
         style="font-style:normal;font-variant:normal;font-weight:normal;font-stretch:normal;font-size:4.23333px;font-family:sans-serif;-inkscape-font-specification:'sans-serif, Normal';font-variant-ligatures:normal;font-variant-caps:normal;font-variant-numeric:normal;font-variant-east-asian:normal;stroke-width:0.264583"
         x="82.134514"
         y="64.070518">Indirect</tspan></text>
    <text
       xml:space="preserve"
       style="font-style:normal;font-variant:normal;font-weight:normal;font-stretch:normal;font-size:4.23333px;line-height:1.25;font-family:sans-serif;-inkscape-font-specification:'sans-serif, Normal';font-variant-ligatures:normal;font-variant-caps:normal;font-variant-numeric:normal;font-variant-east-asian:normal;fill:#000000;fill-opacity:1;stroke:none;stroke-width:0.264583"
       x="129.75964"
       y="64.070518"
       id="text2846-4-6-4"><tspan
         sodipodi:role="line"
         id="tspan2844-5-8-8"
         style="font-style:normal;font-variant:normal;font-weight:normal;font-stretch:normal;font-size:4.23333px;font-family:sans-serif;-inkscape-font-specification:'sans-serif, Normal';font-variant-ligatures:normal;font-variant-caps:normal;font-variant-numeric:normal;font-variant-east-asian:normal;stroke-width:0.264583"
         x="129.75964"
         y="64.070518">Impossible</tspan></text>
    <text
       xml:space="preserve"
       style="font-style:normal;font-weight:normal;font-size:10.5833px;line-height:1.25;font-family:sans-serif;fill:#af0000;fill-opacity:1;stroke:none;stroke-width:0.264583;stroke-opacity:1"
       x="75.523026"
       y="7.8625684"
       id="text2902-8"><tspan
         sodipodi:role="line"
         id="tspan2900-4"
         style="font-style:normal;font-variant:normal;font-weight:normal;font-stretch:normal;font-size:4.23333px;font-family:'DejaVu Serif';-inkscape-font-specification:'DejaVu Serif, Normal';font-variant-ligatures:normal;font-variant-caps:normal;font-variant-numeric:normal;font-variant-east-asian:normal;fill:#af0000;fill-opacity:1;stroke:none;stroke-width:0.264583;stroke-opacity:1"
         x="75.523026"
         y="7.8625684">Donor</tspan></text>
    <text
       xml:space="preserve"
       style="font-style:normal;font-weight:normal;font-size:10.5833px;line-height:1.25;font-family:sans-serif;fill:#006400;fill-opacity:1;stroke:none;stroke-width:0.264583;stroke-opacity:1"
       x="90.339684"
       y="34.3209"
       id="text2902-5-3"><tspan
         sodipodi:role="line"
         id="tspan2900-5-1"
         style="font-style:normal;font-variant:normal;font-weight:normal;font-stretch:normal;font-size:4.23333px;font-family:'DejaVu Serif';-inkscape-font-specification:'DejaVu Serif, Normal';font-variant-ligatures:normal;font-variant-caps:normal;font-variant-numeric:normal;font-variant-east-asian:normal;fill:#006400;fill-opacity:1;stroke:none;stroke-width:0.264583;stroke-opacity:1"
         x="90.339684"
         y="34.3209">Recipient</tspan></text>
    <path
       style="opacity:0.5;fill:none;stroke:#000000;stroke-width:0.264583px;stroke-linecap:butt;stroke-linejoin:miter;stroke-dasharray:0.793749, 0.793749;stroke-dashoffset:0;stroke-opacity:1"
       d="m 2.6458335,10.58333 25.4000055,5e-6 m 6.349999,0 119.062492,-2e-6 M 2.8057723,26.718305 l 48.8156247,10e-7 m 5.556253,1e-6 96.44062,1e-6 M 2.8057693,36.772472 l 23.9447917,10e-7 m 5.423959,1e-6 121.44375,10e-7 M 2.8057683,52.647472 l 48.8156257,10e-7 4.894792,0 c 25.135417,1e-6 71.966664,2e-6 97.102084,2e-6"
       id="path4466"
       sodipodi:nodetypes="cccccccccccccccc" />
    <g
       inkscape:label=""
       transform="translate(52.155992,50.99844)"
       id="g1815">
      <g
         id="surface1"
         transform="matrix(0.352778,0,0,0.352778,-0.198437,-0.0044978)">
        <g
           style="fill:#000000;fill-opacity:1"
           id="g23">
          <g
             id="use21"
             transform="translate(0,8.1689997)">
            <path
               style="stroke:none"
               d="M 4.40625,-7.34375 C 4.5,-7.796875 4.546875,-7.8125 5.015625,-7.8125 H 5.875 c 1.03125,0 1.796875,0.3125 1.796875,1.234375 0,0.609375 -0.3125,2.375 -2.71875,2.375 H 3.609375 Z M 6.0625,-4.0625 C 7.546875,-4.390625 8.703125,-5.34375 8.703125,-6.375 8.703125,-7.296875 7.75,-8.15625 6.09375,-8.15625 H 2.859375 c -0.234375,0 -0.34375,0 -0.34375,0.21875 0,0.125 0.078125,0.125 0.3125,0.125 0.703125,0 0.703125,0.09375 0.703125,0.21875 0,0.03125 0,0.09375 -0.046875,0.28125 L 1.875,-0.890625 C 1.765625,-0.46875 1.75,-0.34375 0.921875,-0.34375 c -0.28125,0 -0.359375,0 -0.359375,0.21875 C 0.5625,0 0.6875,0 0.734375,0 0.9375,0 1.1875,-0.03125 1.421875,-0.03125 h 1.40625 c 0.21875,0 0.46875,0.03125 0.6875,0.03125 0.09375,0 0.21875,0 0.21875,-0.234375 0,-0.109375 -0.09375,-0.109375 -0.28125,-0.109375 -0.734375,0 -0.734375,-0.09375 -0.734375,-0.21875 0,-0.015625 0,-0.09375 0.03125,-0.1875 l 0.796875,-3.21875 h 1.4375 c 1.140625,0 1.34375,0.71875 1.34375,1.109375 0,0.1875 -0.109375,0.640625 -0.203125,0.953125 -0.125,0.5625 -0.15625,0.6875 -0.15625,0.921875 0,0.84375 0.6875,1.234375 1.484375,1.234375 0.96875,0 1.390625,-1.1875 1.390625,-1.34375 0,-0.09375 -0.0625,-0.125 -0.125,-0.125 -0.09375,0 -0.125,0.078125 -0.140625,0.171875 C 8.28125,-0.203125 7.796875,0.015625 7.5,0.015625 7.203125,0.015625 7,-0.125 7,-0.65625 c 0,-0.28125 0.140625,-1.375 0.15625,-1.4375 0.0625,-0.4375 0.0625,-0.484375 0.0625,-0.578125 0,-0.875 -0.703125,-1.25 -1.15625,-1.390625 z m 0,0"
               id="path36" />
          </g>
        </g>
        <g
           clip-path="url(#clipPath7116)"
           clip-rule="nonzero"
           id="g29">
          <g
             style="fill:#000000;fill-opacity:1"
             id="g27">
            <g
               id="use25"
               transform="translate(8.9099998,9.9619999)">
              <path
                 style="stroke:none"
                 d="m 4.125,-3 c 0.03125,-0.109375 0.03125,-0.125 0.03125,-0.1875 0,-0.203125 -0.15625,-0.25 -0.25,-0.25 -0.046875,0 -0.21875,0.015625 -0.328125,0.21875 -0.015625,0.046875 -0.09375,0.328125 -0.125,0.5 L 2.96875,-0.8125 c 0,0.03125 -0.34375,0.671875 -0.921875,0.671875 -0.390625,0 -0.53125,-0.296875 -0.53125,-0.640625 0,-0.46875 0.265625,-1.171875 0.453125,-1.640625 C 2.046875,-2.625 2.078125,-2.6875 2.078125,-2.84375 c 0,-0.4375 -0.359375,-0.671875 -0.71875,-0.671875 -0.796875,0 -1.125,1.125 -1.125,1.21875 0,0.078125 0.0625,0.109375 0.125,0.109375 0.109375,0 0.109375,-0.046875 0.140625,-0.125 0.203125,-0.703125 0.546875,-0.984375 0.828125,-0.984375 0.125,0 0.1875,0.078125 0.1875,0.265625 0,0.171875 -0.0625,0.359375 -0.109375,0.5 -0.328125,0.84375 -0.46875,1.25 -0.46875,1.625 0,0.78125 0.59375,0.984375 1.0625,0.984375 0.375,0 0.640625,-0.171875 0.84375,-0.34375 -0.125,0.4375 -0.203125,0.75 -0.5,1.140625 C 2.078125,1.1875 1.765625,1.40625 1.40625,1.40625 1.265625,1.40625 0.96875,1.375 0.8125,1.140625 1.234375,1.109375 1.265625,0.75 1.265625,0.703125 c 0,-0.1875 -0.15625,-0.296875 -0.3125,-0.296875 C 0.765625,0.40625 0.5,0.546875 0.5,0.9375 0.5,1.3125 0.84375,1.625 1.40625,1.625 2.21875,1.625 3.125,0.96875 3.375,0.015625 Z m 0,0"
                 id="path40" />
            </g>
          </g>
        </g>
      </g>
    </g>
    <g
       inkscape:label=""
       transform="translate(52.205601,25.00864)"
       id="g2063">
      <g
         id="g2061"
         transform="matrix(0.352778,0,0,0.352778,-0.198437,-0.00485072)">
        <g
           style="fill:#000000;fill-opacity:1"
           id="g2051">
          <g
             id="g2049"
             transform="translate(0,8.1700001)">
            <path
               style="stroke:none"
               d="M 4.40625,-7.34375 C 4.5,-7.796875 4.546875,-7.8125 5.015625,-7.8125 H 5.875 c 1.03125,0 1.796875,0.3125 1.796875,1.234375 0,0.609375 -0.3125,2.375 -2.71875,2.375 H 3.609375 Z M 6.0625,-4.0625 C 7.546875,-4.390625 8.703125,-5.34375 8.703125,-6.375 8.703125,-7.296875 7.75,-8.15625 6.09375,-8.15625 H 2.859375 c -0.234375,0 -0.34375,0 -0.34375,0.21875 0,0.125 0.078125,0.125 0.3125,0.125 0.703125,0 0.703125,0.09375 0.703125,0.21875 0,0.03125 0,0.09375 -0.046875,0.28125 L 1.875,-0.890625 C 1.765625,-0.46875 1.75,-0.34375 0.921875,-0.34375 c -0.28125,0 -0.359375,0 -0.359375,0.21875 C 0.5625,0 0.6875,0 0.734375,0 0.9375,0 1.1875,-0.03125 1.421875,-0.03125 h 1.40625 c 0.21875,0 0.46875,0.03125 0.6875,0.03125 0.09375,0 0.21875,0 0.21875,-0.234375 0,-0.109375 -0.09375,-0.109375 -0.28125,-0.109375 -0.734375,0 -0.734375,-0.09375 -0.734375,-0.21875 0,-0.015625 0,-0.09375 0.03125,-0.1875 l 0.796875,-3.21875 h 1.4375 c 1.140625,0 1.34375,0.71875 1.34375,1.109375 0,0.1875 -0.109375,0.640625 -0.203125,0.953125 -0.125,0.5625 -0.15625,0.6875 -0.15625,0.921875 0,0.84375 0.6875,1.234375 1.484375,1.234375 0.96875,0 1.390625,-1.1875 1.390625,-1.34375 0,-0.09375 -0.0625,-0.125 -0.125,-0.125 -0.09375,0 -0.125,0.078125 -0.140625,0.171875 C 8.28125,-0.203125 7.796875,0.015625 7.5,0.015625 7.203125,0.015625 7,-0.125 7,-0.65625 c 0,-0.28125 0.140625,-1.375 0.15625,-1.4375 0.0625,-0.4375 0.0625,-0.484375 0.0625,-0.578125 0,-0.875 -0.703125,-1.25 -1.15625,-1.390625 z m 0,0"
               id="path2047" />
          </g>
        </g>
        <g
           clip-path="url(#clipPath1924)"
           clip-rule="nonzero"
           id="g2059">
          <g
             style="fill:#000000;fill-opacity:1"
             id="g2057">
            <g
               id="g2055"
               transform="translate(8.9099998,9.9630003)">
              <path
                 style="stroke:none"
                 d="m 3.96875,-2.140625 c 0,-0.78125 -0.5625,-1.375 -1.390625,-1.375 -1.125,0 -2.234375,1.09375 -2.234375,2.21875 0,0.8125 0.578125,1.375 1.390625,1.375 1.140625,0 2.234375,-1.109375 2.234375,-2.21875 z m -2.21875,2 c -0.28125,0 -0.75,-0.140625 -0.75,-0.875 0,-0.328125 0.140625,-1.1875 0.53125,-1.6875 0.390625,-0.5 0.828125,-0.59375 1.046875,-0.59375 0.328125,0 0.75,0.203125 0.75,0.875 0,0.3125 -0.15625,1.078125 -0.453125,1.546875 -0.296875,0.453125 -0.734375,0.734375 -1.125,0.734375 z m 0,0"
                 id="path2053" />
            </g>
          </g>
        </g>
      </g>
    </g>
    <g
       inkscape:label=""
       transform="translate(27.891495,9.0006866)"
       id="g2333">
      <g
         id="g2331"
         transform="matrix(0.352778,0,0,0.352778,-0.198437,-0.00485072)">
        <g
           style="fill:#000000;fill-opacity:1"
           id="g2321">
          <g
             id="g2319"
             transform="translate(0,8.1700001)">
            <path
               style="stroke:none"
               d="M 1.875,-0.890625 C 1.765625,-0.46875 1.75,-0.34375 0.90625,-0.34375 c -0.21875,0 -0.34375,0 -0.34375,0.21875 C 0.5625,0 0.640625,0 0.875,0 h 3.78125 c 2.421875,0 4.78125,-2.5 4.78125,-5.15625 0,-1.734375 -1.03125,-3 -2.75,-3 H 2.859375 c -0.234375,0 -0.34375,0 -0.34375,0.21875 0,0.125 0.109375,0.125 0.296875,0.125 0.71875,0 0.71875,0.09375 0.71875,0.21875 0,0.03125 0,0.09375 -0.046875,0.28125 z M 4.40625,-7.34375 C 4.5,-7.796875 4.546875,-7.8125 5.015625,-7.8125 h 1.3125 c 1.125,0 2.15625,0.609375 2.15625,2.25 0,0.609375 -0.234375,2.6875 -1.390625,4 -0.34375,0.390625 -1.25,1.21875 -2.625,1.21875 H 3.109375 c -0.171875,0 -0.1875,0 -0.265625,-0.015625 -0.125,-0.015625 -0.140625,-0.03125 -0.140625,-0.125 0,-0.09375 0.015625,-0.15625 0.046875,-0.265625 z m 0,0"
               id="path2317" />
          </g>
        </g>
        <g
           clip-path="url(#clipPath6870)"
           clip-rule="nonzero"
           id="g2329">
          <g
             style="fill:#000000;fill-opacity:1"
             id="g2327">
            <g
               id="g2325"
               transform="translate(9.7189999,9.9630003)">
              <path
                 style="stroke:none"
                 d="m 3.96875,-2.140625 c 0,-0.78125 -0.5625,-1.375 -1.390625,-1.375 -1.125,0 -2.234375,1.09375 -2.234375,2.21875 0,0.8125 0.578125,1.375 1.390625,1.375 1.140625,0 2.234375,-1.109375 2.234375,-2.21875 z m -2.21875,2 c -0.28125,0 -0.75,-0.140625 -0.75,-0.875 0,-0.328125 0.140625,-1.1875 0.53125,-1.6875 0.390625,-0.5 0.828125,-0.59375 1.046875,-0.59375 0.328125,0 0.75,0.203125 0.75,0.875 0,0.3125 -0.15625,1.078125 -0.453125,1.546875 -0.296875,0.453125 -0.734375,0.734375 -1.125,0.734375 z m 0,0"
                 id="path2323" />
            </g>
          </g>
        </g>
      </g>
    </g>
    <g
       inkscape:label=""
       transform="translate(28.040325,35.062806)"
       id="g2625">
      <g
         id="g2623"
         transform="matrix(0.352778,0,0,0.352778,-0.198437,-0.0044978)">
        <g
           style="fill:#000000;fill-opacity:1"
           id="g2613">
          <g
             id="g2611"
             transform="translate(0,8.1689997)">
            <path
               style="stroke:none"
               d="M 1.875,-0.890625 C 1.765625,-0.46875 1.75,-0.34375 0.90625,-0.34375 c -0.21875,0 -0.34375,0 -0.34375,0.21875 C 0.5625,0 0.640625,0 0.875,0 h 3.78125 c 2.421875,0 4.78125,-2.5 4.78125,-5.15625 0,-1.734375 -1.03125,-3 -2.75,-3 H 2.859375 c -0.234375,0 -0.34375,0 -0.34375,0.21875 0,0.125 0.109375,0.125 0.296875,0.125 0.71875,0 0.71875,0.09375 0.71875,0.21875 0,0.03125 0,0.09375 -0.046875,0.28125 z M 4.40625,-7.34375 C 4.5,-7.796875 4.546875,-7.8125 5.015625,-7.8125 h 1.3125 c 1.125,0 2.15625,0.609375 2.15625,2.25 0,0.609375 -0.234375,2.6875 -1.390625,4 -0.34375,0.390625 -1.25,1.21875 -2.625,1.21875 H 3.109375 c -0.171875,0 -0.1875,0 -0.265625,-0.015625 -0.125,-0.015625 -0.140625,-0.03125 -0.140625,-0.125 0,-0.09375 0.015625,-0.15625 0.046875,-0.265625 z m 0,0"
               id="path2609" />
          </g>
        </g>
        <g
           clip-path="url(#clipPath6718)"
           clip-rule="nonzero"
           id="g2621">
          <g
             style="fill:#000000;fill-opacity:1"
             id="g2619">
            <g
               id="g2617"
               transform="translate(9.7189999,9.9619999)">
              <path
                 style="stroke:none"
                 d="m 4.125,-3 c 0.03125,-0.109375 0.03125,-0.125 0.03125,-0.1875 0,-0.203125 -0.15625,-0.25 -0.25,-0.25 -0.046875,0 -0.21875,0.015625 -0.328125,0.21875 -0.015625,0.046875 -0.09375,0.328125 -0.125,0.5 L 2.96875,-0.8125 c 0,0.03125 -0.34375,0.671875 -0.921875,0.671875 -0.390625,0 -0.53125,-0.296875 -0.53125,-0.640625 0,-0.46875 0.265625,-1.171875 0.453125,-1.640625 C 2.046875,-2.625 2.078125,-2.6875 2.078125,-2.84375 c 0,-0.4375 -0.359375,-0.671875 -0.71875,-0.671875 -0.796875,0 -1.125,1.125 -1.125,1.21875 0,0.078125 0.0625,0.109375 0.125,0.109375 0.109375,0 0.109375,-0.046875 0.140625,-0.125 0.203125,-0.703125 0.546875,-0.984375 0.828125,-0.984375 0.125,0 0.1875,0.078125 0.1875,0.265625 0,0.171875 -0.0625,0.359375 -0.109375,0.5 -0.328125,0.84375 -0.46875,1.25 -0.46875,1.625 0,0.78125 0.59375,0.984375 1.0625,0.984375 0.375,0 0.640625,-0.171875 0.84375,-0.34375 -0.125,0.4375 -0.203125,0.75 -0.5,1.140625 C 2.078125,1.1875 1.765625,1.40625 1.40625,1.40625 1.265625,1.40625 0.96875,1.375 0.8125,1.140625 1.234375,1.109375 1.265625,0.75 1.265625,0.703125 c 0,-0.1875 -0.15625,-0.296875 -0.3125,-0.296875 C 0.765625,0.40625 0.5,0.546875 0.5,0.9375 0.5,1.3125 0.84375,1.625 1.40625,1.625 2.21875,1.625 3.125,0.96875 3.375,0.015625 Z m 0,0"
                 id="path2615" />
            </g>
          </g>
        </g>
      </g>
    </g>
  </g>
</svg>
